<svg width="500" height="500" viewBox="0 0 500 500" fill="none" xmlns="http://www.w3.org/2000/svg">
<path opacity="0.18" d="M123.93 306.672C110.739 272.562 28.1183 208.824 93.3903 139.874C158.662 70.9357 240.432 26.1152 321.77 36.3828C381.998 43.9907 430.078 83.2281 431.959 155.713C434.571 255.849 403.133 360.179 323.963 425.882C268.551 471.865 215.176 506.058 145.22 475.052C75.6106 444.189 142.572 354.883 123.93 306.672Z" fill="#F0F7F8"/>
<path d="M316.037 13.9579L333.745 23.3229L354.112 40.0961L370.886 61.6618L385.85 91.8776L392.451 126.359V153.148L396.86 171.646L400.304 202.953L380.739 229.394L356.038 246.168L308.717 256.951L319.02 267.314L380.471 310.865L396.046 320.449L400.874 335.366L388.857 346.807L363.697 350.496L331.349 334.826L337.339 363.581L338.537 383.948L335.65 415.949L329.156 445.446L322.962 464.22L308.717 487.379L294.208 498.965L278.573 496.676L270.246 491.776L255.869 448.645V416.009L240.294 413.9V430.47L235.502 465.418L225.917 491.776L214.427 498.965H201.859L187.578 488.182L165.389 449.016L156.428 400.721L159.411 352.81L180.389 298.884L161.22 338.421L144.447 343.065L120.485 351.6L108.222 345.609L97.7332 329.231L106.276 315.705L133.065 300.681L183.487 256.951L136.699 240.776L105.024 216.814L101.879 193.847L104.068 152.118L106.801 106.59L131.867 56.2704L171.404 22.7238L232.506 1.1582L300.797 9.35662L316.037 13.9579Z" fill="white"/>
<path d="M249.796 212.726C240.858 212.643 233.07 209.959 227.248 202.914C226.002 201.404 225.055 199.511 224.504 197.642C224.276 196.84 225.187 195.15 226.002 194.767C226.852 194.372 228.23 194.995 229.32 195.354C229.74 195.486 229.991 196.133 230.303 196.564C236.185 204.831 244.572 206.688 253.965 205.574C260.447 204.807 265.898 201.98 269.684 196.408C270.954 194.539 272.679 193.928 274.692 195.186C276.477 196.301 276.645 198.433 275.255 200.542C270.702 207.419 263.957 210.678 256.098 212.044C254.013 212.403 251.892 212.511 249.784 212.726H249.796Z" fill="#01466E"/>
<path d="M177.551 75.5913C178.845 75.8429 180.295 75.807 181.361 76.418C182.164 76.8733 182.871 78.1792 182.871 79.1017C182.871 79.8325 181.84 80.9348 181.037 81.1984C179.648 81.6536 178.078 81.5099 176.605 81.7615C169.883 82.8517 164.408 86.1705 159.879 91.1904C159.316 91.8135 158.394 92.113 157.639 92.5563C157.531 91.4181 156.98 90.0762 157.399 89.1657C159.256 85.0323 162.383 81.9172 166.109 79.4132C169.548 77.0889 173.31 75.7231 177.551 75.6033V75.5913Z" fill="#01466E"/>
<path d="M322.831 75.7955C331.745 75.5559 339.772 82.9721 342.935 89.2501C343.354 90.0887 342.899 91.3827 342.839 92.4609C341.929 91.9937 340.814 91.7181 340.155 91.0113C334.944 85.4521 328.821 81.8459 321.034 81.5224C319.297 81.4505 317.464 81.103 317.404 78.8986C317.332 76.6222 319.153 76.083 320.998 75.8195C321.609 75.7356 322.232 75.8075 322.855 75.8075L322.831 75.7955Z" fill="#01466E"/>
<path d="M343.223 140.481C344.469 150.461 344.062 159.961 340.012 169.043C337.904 173.775 335.088 178.029 331.063 181.359C320.687 189.962 306.813 187.913 298.738 176.483C291.945 166.886 290.004 155.996 290.998 144.518C291.681 136.575 294.102 129.171 298.702 122.557C304.573 114.123 313.163 110.121 322.305 112.673C326.606 113.871 331.542 116.531 334.369 119.981C338.012 124.426 342.277 132.298 343.235 140.493L343.223 140.481ZM332.896 131.567C333.087 127.134 330.2 123.144 326.714 123.048C323.431 122.952 320.412 126.822 320.376 131.183C320.34 135.604 323.119 139.414 326.45 139.51C329.9 139.606 332.692 136.167 332.896 131.567Z" fill="#01466E"/>
<path d="M332.896 131.567C332.704 136.155 329.901 139.606 326.45 139.51C323.12 139.414 320.34 135.604 320.376 131.183C320.412 126.822 323.431 122.952 326.714 123.048C330.2 123.144 333.088 127.122 332.896 131.567Z" fill="white"/>
<path d="M209.288 140.481C210.534 150.461 210.127 159.961 206.077 169.043C203.969 173.775 201.153 178.029 197.128 181.359C186.752 189.962 172.878 187.913 164.803 176.483C158.01 166.886 156.069 155.996 157.064 144.518C157.747 136.575 160.167 129.171 164.767 122.557C170.638 114.123 179.228 110.121 188.37 112.673C192.671 113.871 197.607 116.531 200.434 119.981C204.077 124.426 208.342 132.298 209.3 140.493L209.288 140.481ZM198.961 131.567C199.153 127.134 196.265 123.144 192.779 123.048C189.496 122.952 186.477 126.822 186.441 131.183C186.405 135.604 189.184 139.414 192.515 139.51C195.966 139.606 198.757 136.167 198.961 131.567Z" fill="#01466E"/>
<path d="M198.96 131.567C198.769 136.155 195.965 139.606 192.515 139.51C189.184 139.414 186.404 135.604 186.44 131.183C186.476 126.822 189.495 122.952 192.778 123.048C196.265 123.144 199.152 127.122 198.96 131.567Z" fill="white"/>
<path d="M318.886 262.477L350.768 285.244C363.412 294.194 377.489 300.964 390.471 309.332C402.211 316.892 410.301 325.555 401.759 339.963C388.499 362.313 353.81 354.805 337.169 340.458C340.01 351.407 342.913 362.521 343.877 373.861C346.484 404.596 335.692 453.589 318.53 479.466C299.178 508.638 269.633 504.858 258.449 471.637C252.914 455.214 251.932 436.644 250.95 419.438C250.577 418.291 247.396 419.03 246.362 418.821C244.12 438.781 243.799 462.235 234.405 480.405C220.841 506.63 193.599 503.78 177.957 481.265C163.845 460.957 153.73 424.913 151.402 400.365C149.499 380.3 151.897 360.271 156.989 340.849C144.632 349.469 128.713 354.501 113.81 349.904C96.6568 344.603 87.6891 325.781 103.105 312.504C113.506 303.536 131.129 295.376 143.164 287.269C155.234 279.144 166.669 270.003 178.635 261.739C178.565 261.165 178.088 261.165 177.67 261.035C175.541 260.366 172.952 260.027 170.719 259.401C133.675 248.982 88.7319 225.798 94.3801 180.256C95.0753 174.642 96.9262 169.211 97.9429 163.667C100.576 149.225 97.6388 134.861 99.6026 120.184C104.478 83.8877 127.045 48.2601 156.876 27.4745C202.262 -4.15583 271.892 -7.77941 321.745 15.0222C363.055 33.9135 394.303 75.5108 399.778 120.923C401.429 134.609 398.978 148.174 401.055 161.443C402.802 172.652 406.252 181.863 405.044 193.638C400.899 234.079 353.923 255.473 318.886 262.495V262.477ZM257.711 418.456C259.675 436.114 260.109 455.639 266.748 472.28C272.831 487.53 286.3 497.862 301.689 486.14C320.094 472.124 332.433 425.678 334.875 403.293C339.011 365.415 327.141 333.871 311.856 300.286C310.457 297.21 306.712 290.979 305.999 288.233C305.182 285.096 307.633 282.272 310.57 284.036C312.038 284.914 316.288 292.987 317.452 295.063C321.467 302.232 325.099 309.662 328.644 317.074C330.295 320.524 331.121 324.009 333.606 327.033C345.754 341.822 379.018 356.186 393.469 337.651C400.056 329.214 396.693 323.27 389.116 317.769C377.602 309.401 363.012 302.519 350.76 294.577C336.239 285.157 322.414 274.704 308.415 264.545C301.602 263.989 292.947 266.874 286.256 265.814C283.128 265.319 282.329 260.957 285.578 259.957C321.588 256.82 384.336 240.284 395.433 200.442C399.274 186.643 395.32 177.11 392.904 163.971C390.367 150.181 392.809 136.773 391.184 122.783C385.866 76.8404 353.558 35.8339 310.483 19.5582C232.215 -10.03 132.936 21.3135 110.917 107.993C107.293 122.27 107.623 132.185 107.762 146.601C107.884 159.679 105.129 166.743 103.078 178.883C93.937 232.863 166.913 252.71 207.215 258.315C211.117 258.862 216.478 258.81 220.059 259.644C222.639 260.244 223.769 263.468 221.336 265.084C219.807 266.101 217.53 265.892 215.722 265.849C207.215 265.64 198.647 264.05 190.175 263.45C172.378 275.529 155.703 289.181 137.333 300.468C128.652 305.804 111.603 313.755 105.729 321.471C98.6815 330.726 108.753 340.693 117.816 342.9C133.405 346.697 150.046 338.129 160.882 327.389C167.173 312.921 174.151 298.739 181.859 284.975C183.814 282.715 187.611 283.393 187.881 286.652C175.455 314.528 161.933 343.195 159.605 374.252C157.424 403.284 167.008 447.541 182.198 472.541C195.641 494.665 218.242 499.757 229.791 472.819C236.969 456.091 237.264 436.331 239.428 418.465C235.908 418.022 232.389 417.396 228.983 416.414C226.15 415.589 214.74 412.2 219.45 407.62C221.666 405.465 225.672 407.916 228.305 408.507C241.991 411.618 255.669 411.122 269.346 408.272C271.944 407.733 278.357 404.727 278.575 409.723C278.696 412.478 275.472 413.599 273.361 414.529C268.469 416.692 263.029 417.9 257.711 418.465V418.456Z" fill="#01466E"/>
</svg>
