<svg width="500" height="500" viewBox="0 0 500 500" fill="none" xmlns="http://www.w3.org/2000/svg">
<path d="M107.593 52.2099C107.937 50.1777 108.843 47.9892 110.313 45.6443C111.782 43.2682 113.877 41.0641 116.597 39.0319C119.286 36.9997 121.974 35.7022 124.663 35.1394V33.1698C122.006 32.5445 119.458 31.3877 117.019 29.6994C114.549 27.9799 112.486 25.9164 110.829 23.509C109.14 21.0391 108.062 18.6005 107.593 16.1931H105.623C105.342 17.7563 104.779 19.3665 103.935 21.0235C103.091 22.6492 102.012 24.2125 100.699 25.7132C99.3545 27.1826 97.8538 28.5114 96.1968 29.6994C93.7269 31.4502 91.2101 32.607 88.6464 33.1698V35.1394C90.366 35.4834 92.148 36.1868 93.9926 37.2498C95.806 38.3128 97.4943 39.579 99.0575 41.0484C100.621 42.4866 101.903 44.003 102.903 45.5974C104.372 47.9423 105.279 50.1464 105.623 52.2099H107.593Z" fill="#F2AE48"/>
<path d="M423.011 162.208C422.674 160.219 421.787 158.077 420.348 155.781C418.91 153.456 416.86 151.298 414.197 149.309C411.565 147.319 408.933 146.049 406.301 145.499V143.57C408.903 142.958 411.397 141.826 413.784 140.173C416.202 138.49 418.221 136.47 419.843 134.114C421.496 131.696 422.552 129.309 423.011 126.952H424.939C425.214 128.483 425.765 130.059 426.592 131.681C427.418 133.272 428.474 134.802 429.759 136.271C431.075 137.71 432.544 139.01 434.166 140.173C436.584 141.887 439.047 143.02 441.557 143.57V145.499C439.874 145.835 438.129 146.524 436.324 147.564C434.549 148.605 432.896 149.844 431.366 151.283C429.836 152.69 428.581 154.175 427.602 155.736C426.163 158.031 425.276 160.188 424.939 162.208H423.011Z" fill="#F2AE48"/>
<path d="M93.3732 70.7672C93.5882 69.497 94.1549 68.1291 95.0733 66.6635C95.9918 65.1784 97.3011 63.8007 99.0012 62.5305C100.682 61.2603 102.362 60.4493 104.043 60.0976V58.8665C102.382 58.4756 100.789 57.7526 99.265 56.6973C97.7212 55.6226 96.4315 54.3328 95.3958 52.8281C94.3405 51.2843 93.6664 49.7601 93.3732 48.2554H92.1421C91.9662 49.2325 91.6145 50.2389 91.0869 51.2746C90.5593 52.2907 89.8851 53.2678 89.0643 54.2058C88.224 55.1242 87.286 55.9548 86.2503 56.6973C84.7066 57.7917 83.1335 58.5147 81.5311 58.8665V60.0976C82.6058 60.3125 83.7197 60.7522 84.8727 61.4166C86.0061 62.081 87.0613 62.8725 88.0384 63.7909C89.0155 64.6898 89.8167 65.6376 90.442 66.6342C91.3605 68.0998 91.9272 69.4775 92.1421 70.7672H93.3732Z" fill="#F2AE48"/>
<path d="M436.93 179.993C436.72 178.75 436.165 177.411 435.266 175.976C434.367 174.522 433.085 173.174 431.421 171.93C429.776 170.687 428.131 169.893 426.486 169.549V168.344C428.112 167.961 429.671 167.253 431.163 166.221C432.674 165.168 433.937 163.906 434.95 162.433C435.983 160.922 436.643 159.43 436.93 157.957H438.135C438.308 158.913 438.652 159.899 439.168 160.912C439.685 161.907 440.345 162.863 441.148 163.782C441.971 164.681 442.889 165.494 443.903 166.221C445.414 167.292 446.954 168 448.522 168.344V169.549C447.47 169.759 446.38 170.19 445.251 170.84C444.142 171.49 443.109 172.265 442.152 173.164C441.196 174.044 440.412 174.972 439.8 175.947C438.901 177.382 438.346 178.731 438.135 179.993H436.93Z" fill="#F2AE48"/>
<path d="M449.544 13.2413C447.424 13.3657 445.272 13.2455 443.146 13.2441L387.07 13.2334C374.267 13.2659 372.083 17.4983 372.079 28.3899L372.078 37.1546C372.079 46.3968 371.918 55.6646 372.057 64.904C372.184 73.3991 378.488 76.0787 386.906 75.8787C387.011 79.9037 386.908 83.9523 386.906 87.9797C386.867 88.9654 386.867 89.9395 386.906 90.9257C389.226 94.3362 393.22 88.8025 395.182 87.038L407.615 75.8787L444.823 75.8875C451.396 75.8996 458.018 75.0159 459.63 67.6959C460.234 64.9551 459.918 61.8898 459.915 59.0946L459.912 30.0114C459.913 22.2422 460.807 15.1872 449.544 13.2413ZM433.794 16.5316L442.555 16.5284C454.399 16.5335 456.433 17.3577 456.428 28.3486L456.423 37.1838C456.42 46.2729 456.592 55.3889 456.434 64.4752C456.264 74.2363 446.29 72.6357 438.52 72.6333L413.224 72.637C411.622 72.6394 407.387 72.3354 406.144 72.8649C405.403 73.1809 395.565 82.1693 394.302 83.3249L390.536 86.8389L390.548 77.9313C390.552 76.6073 390.67 75.2104 390.553 73.8966C390.315 71.2221 382.076 74.117 378.018 70.7334C374.597 67.8816 375.587 61.5821 375.586 57.7701L375.584 30.3971C375.58 19.0395 375.125 16.5066 389.11 16.5233L433.794 16.5316Z" fill="#F6CE8F" stroke="#F6CE8F" stroke-width="5.24503"/>
<path d="M416.695 40.4213C411.874 40.258 411.205 46.1263 416.225 47.3524C421.221 47.4429 421.746 41.4177 416.695 40.4213Z" fill="#F6CE8F"/>
<path d="M433.794 40.4196C429.818 40.1467 428.255 45.8925 433.398 47.3506C438.711 47.1933 439.437 41.3765 433.794 40.4196Z" fill="#F6CE8F"/>
<path d="M399.892 40.4184C394.832 39.8735 393.795 46.1173 398.543 47.3495C403.622 47.6938 404.746 41.6463 399.892 40.4184Z" fill="#F6CE8F"/>
</svg>
