<svg width="500" height="500" viewBox="0 0 500 500" fill="none" xmlns="http://www.w3.org/2000/svg">
<path d="M233.797 300.52C217.669 300.136 193.477 277.64 183.397 266.44C180.357 262.601 177.445 255.881 190.117 259.721C202.789 263.561 224.517 285.001 233.797 295.241C243.237 294.281 263.461 292.553 268.837 293.321C274.213 294.089 293.797 273.481 302.917 263.08C309.957 260.36 322.405 257.8 315.877 269.32C309.349 280.84 281.797 294.92 268.837 300.52C263.877 300.68 249.925 300.904 233.797 300.52Z" fill="#D9D9D9"/>
<g clip-path="url(#clip0_179_484)">
<g filter="url(#filter0_dd_179_484)">
<mask id="mask0_179_484" style="mask-type:alpha" maskUnits="userSpaceOnUse" x="227" y="274" width="46" height="45">
<path fill-rule="evenodd" clip-rule="evenodd" d="M249.113 274.919C260.06 272.791 268.541 278.512 270.668 289.459L271.877 295.675C274.005 306.622 268.284 315.103 257.337 317.231L251.121 318.439C240.174 320.567 231.693 314.847 229.565 303.9L228.357 297.683C226.229 286.736 231.949 278.256 242.896 276.128L249.113 274.919Z" fill="url(#paint0_linear_179_484)"/>
</mask>
<g mask="url(#mask0_179_484)">
<path d="M249.216 275.449C254.572 274.408 259.279 275.294 262.896 277.734C266.4 280.097 268.935 283.955 270.036 289.063L270.139 289.562L271.347 295.778C272.388 301.135 271.502 305.841 269.062 309.458C266.699 312.962 262.842 315.497 257.733 316.599L257.234 316.701L251.018 317.909C245.661 318.951 240.955 318.064 237.338 315.625C233.834 313.261 231.299 309.404 230.197 304.295L230.096 303.796L228.887 297.58C227.845 292.224 228.732 287.518 231.171 283.9C233.535 280.396 237.392 277.861 242.501 276.76L243 276.658L249.216 275.449Z" fill="#E6BC7E" stroke="url(#paint1_linear_179_484)" stroke-width="1.08"/>
<path d="M234.007 281.47C230.809 284.157 229.147 288.715 229.147 291.145C230.902 290.785 261.052 284.665 267.307 283.315C264.697 278.635 260.242 276.61 257.272 275.935C254.302 275.26 251.197 275.62 246.337 276.61C241.277 277.64 238.237 277.915 234.007 281.47Z" fill="black" fill-opacity="0.12"/>
<circle cx="234.566" cy="295.129" r="1.44" transform="rotate(-11 234.566 295.129)" fill="black" fill-opacity="0.12"/>
<circle cx="239.513" cy="294.167" r="1.44" transform="rotate(-11 239.513 294.167)" fill="black" fill-opacity="0.12"/>
<circle cx="244.46" cy="293.206" r="1.44" transform="rotate(-11 244.46 293.206)" fill="black" fill-opacity="0.12"/>
<circle cx="249.408" cy="292.245" r="1.44" transform="rotate(-11 249.408 292.245)" fill="black" fill-opacity="0.12"/>
<circle cx="254.355" cy="291.282" r="1.44" transform="rotate(-11 254.355 291.282)" fill="black" fill-opacity="0.12"/>
<circle cx="235.664" cy="300.782" r="1.44" transform="rotate(-11 235.664 300.782)" fill="black" fill-opacity="0.12"/>
<circle cx="240.612" cy="299.821" r="1.44" transform="rotate(-11 240.612 299.821)" fill="black" fill-opacity="0.12"/>
<circle cx="245.559" cy="298.86" r="1.44" transform="rotate(-11 245.559 298.86)" fill="black" fill-opacity="0.12"/>
<circle cx="250.507" cy="297.899" r="1.44" transform="rotate(-11 250.507 297.899)" fill="black" fill-opacity="0.12"/>
<circle cx="255.454" cy="296.937" r="1.44" transform="rotate(-11 255.454 296.937)" fill="black" fill-opacity="0.12"/>
<circle cx="260.401" cy="295.976" r="1.44" transform="rotate(-11 260.401 295.976)" fill="black" fill-opacity="0.12"/>
<circle cx="265.349" cy="295.014" r="1.44" transform="rotate(-11 265.349 295.014)" fill="black" fill-opacity="0.12"/>
<circle cx="236.764" cy="306.437" r="1.44" transform="rotate(-11 236.764 306.437)" fill="black" fill-opacity="0.12"/>
<circle cx="241.711" cy="305.476" r="1.44" transform="rotate(-11 241.711 305.476)" fill="black" fill-opacity="0.12"/>
<circle cx="246.658" cy="304.514" r="1.44" transform="rotate(-11 246.658 304.514)" fill="black" fill-opacity="0.12"/>
<circle cx="251.606" cy="303.553" r="1.44" transform="rotate(-11 251.606 303.553)" fill="black" fill-opacity="0.12"/>
<circle cx="256.553" cy="302.592" r="1.44" transform="rotate(-11 256.553 302.592)" fill="black" fill-opacity="0.12"/>
<circle cx="261.501" cy="301.63" r="1.44" transform="rotate(-11 261.501 301.63)" fill="black" fill-opacity="0.12"/>
<circle cx="266.448" cy="300.668" r="1.44" transform="rotate(-11 266.448 300.668)" fill="black" fill-opacity="0.12"/>
<circle cx="247.757" cy="310.168" r="1.44" transform="rotate(-11 247.757 310.168)" fill="black" fill-opacity="0.12"/>
<circle cx="242.785" cy="311.134" r="1.44" transform="rotate(-11 242.785 311.134)" fill="black" fill-opacity="0.12"/>
<circle cx="237.838" cy="312.097" r="1.44" transform="rotate(-11 237.838 312.097)" fill="black" fill-opacity="0.12"/>
<circle cx="252.705" cy="309.207" r="1.44" transform="rotate(-11 252.705 309.207)" fill="black" fill-opacity="0.12"/>
<circle cx="257.652" cy="308.245" r="1.44" transform="rotate(-11 257.652 308.245)" fill="black" fill-opacity="0.12"/>
<circle cx="262.599" cy="307.284" r="1.44" transform="rotate(-11 262.599 307.284)" fill="black" fill-opacity="0.12"/>
<circle cx="267.547" cy="306.322" r="1.44" transform="rotate(-11 267.547 306.322)" fill="black" fill-opacity="0.12"/>
</g>
<g filter="url(#filter1_d_179_484)">
<ellipse cx="250.111" cy="296.7" rx="15.8073" ry="16.0596" transform="rotate(3 250.111 296.7)" fill="white"/>
</g>
<g filter="url(#filter2_d_179_484)">
<rect x="245.424" y="308.962" width="1.17714" height="13.3401" rx="0.58857" transform="rotate(-156.884 245.424 308.962)" fill="#222222" fill-opacity="0.12"/>
</g>
<g filter="url(#filter3_d_179_484)">
<rect x="259.152" y="305.741" width="1.17714" height="13.3401" rx="0.58857" transform="rotate(137.153 259.152 305.741)" fill="#222222" fill-opacity="0.12"/>
</g>
<g filter="url(#filter4_d_179_484)">
<rect x="242.701" y="283.851" width="1.17714" height="15.1347" rx="0.58857" transform="rotate(-27 242.701 283.851)" fill="#222222"/>
</g>
<g filter="url(#filter5_d_179_484)">
<rect x="258.301" y="291.648" width="2.01795" height="9.99911" rx="1.00898" transform="rotate(63 258.301 291.648)" fill="#222222"/>
</g>
<g filter="url(#filter6_d_179_484)">
<circle cx="250.106" cy="296.785" r="1.68163" transform="rotate(3 250.106 296.785)" fill="white"/>
</g>
</g>
</g>
<defs>
<filter id="filter0_dd_179_484" x="227.737" y="274.299" width="44.7587" height="44.9394" filterUnits="userSpaceOnUse" color-interpolation-filters="sRGB">
<feFlood flood-opacity="0" result="BackgroundImageFix"/>
<feColorMatrix in="SourceAlpha" type="matrix" values="0 0 0 0 0 0 0 0 0 0 0 0 0 0 0 0 0 0 127 0" result="hardAlpha"/>
<feOffset dy="0.18"/>
<feGaussianBlur stdDeviation="0.09"/>
<feColorMatrix type="matrix" values="0 0 0 0 0 0 0 0 0 0 0 0 0 0 0 0 0 0 0.08 0"/>
<feBlend mode="normal" in2="BackgroundImageFix" result="effect1_dropShadow_179_484"/>
<feColorMatrix in="SourceAlpha" type="matrix" values="0 0 0 0 0 0 0 0 0 0 0 0 0 0 0 0 0 0 127 0" result="hardAlpha"/>
<feOffset/>
<feGaussianBlur stdDeviation="0.09"/>
<feColorMatrix type="matrix" values="0 0 0 0 0 0 0 0 0 0 0 0 0 0 0 0 0 0 0.28 0"/>
<feBlend mode="normal" in2="effect1_dropShadow_179_484" result="effect2_dropShadow_179_484"/>
<feBlend mode="normal" in="SourceGraphic" in2="effect2_dropShadow_179_484" result="shape"/>
</filter>
<filter id="filter1_d_179_484" x="232.651" y="278.989" width="34.9197" height="35.4209" filterUnits="userSpaceOnUse" color-interpolation-filters="sRGB">
<feFlood flood-opacity="0" result="BackgroundImageFix"/>
<feColorMatrix in="SourceAlpha" type="matrix" values="0 0 0 0 0 0 0 0 0 0 0 0 0 0 0 0 0 0 127 0" result="hardAlpha"/>
<feOffset/>
<feGaussianBlur stdDeviation="0.825684"/>
<feColorMatrix type="matrix" values="0 0 0 0 0 0 0 0 0 0 0 0 0 0 0 0 0 0 0.12 0"/>
<feBlend mode="normal" in2="BackgroundImageFix" result="effect1_dropShadow_179_484"/>
<feBlend mode="normal" in="SourceGraphic" in2="effect1_dropShadow_179_484" result="shape"/>
</filter>
<filter id="filter2_d_179_484" x="243.179" y="295.069" width="8.64324" height="15.0549" filterUnits="userSpaceOnUse" color-interpolation-filters="sRGB">
<feFlood flood-opacity="0" result="BackgroundImageFix"/>
<feColorMatrix in="SourceAlpha" type="matrix" values="0 0 0 0 0 0 0 0 0 0 0 0 0 0 0 0 0 0 127 0" result="hardAlpha"/>
<feOffset/>
<feGaussianBlur stdDeviation="0.672651"/>
<feColorMatrix type="matrix" values="0 0 0 0 0 0 0 0 0 0 0 0 0 0 0 0 0 0 0.08 0"/>
<feBlend mode="normal" in2="BackgroundImageFix" result="effect1_dropShadow_179_484"/>
<feBlend mode="normal" in="SourceGraphic" in2="effect1_dropShadow_179_484" result="shape"/>
</filter>
<filter id="filter3_d_179_484" x="248.115" y="294.859" width="12.1391" height="12.7853" filterUnits="userSpaceOnUse" color-interpolation-filters="sRGB">
<feFlood flood-opacity="0" result="BackgroundImageFix"/>
<feColorMatrix in="SourceAlpha" type="matrix" values="0 0 0 0 0 0 0 0 0 0 0 0 0 0 0 0 0 0 127 0" result="hardAlpha"/>
<feOffset/>
<feGaussianBlur stdDeviation="0.672652"/>
<feColorMatrix type="matrix" values="0 0 0 0 0 0 0 0 0 0 0 0 0 0 0 0 0 0 0.08 0"/>
<feBlend mode="normal" in2="BackgroundImageFix" result="effect1_dropShadow_179_484"/>
<feBlend mode="normal" in="SourceGraphic" in2="effect1_dropShadow_179_484" result="shape"/>
</filter>
<filter id="filter4_d_179_484" x="241.559" y="282.174" width="10.2045" height="16.3039" filterUnits="userSpaceOnUse" color-interpolation-filters="sRGB">
<feFlood flood-opacity="0" result="BackgroundImageFix"/>
<feColorMatrix in="SourceAlpha" type="matrix" values="0 0 0 0 0 0 0 0 0 0 0 0 0 0 0 0 0 0 127 0" result="hardAlpha"/>
<feOffset/>
<feGaussianBlur stdDeviation="0.672652"/>
<feColorMatrix type="matrix" values="0 0 0 0 0 0 0 0 0 0 0 0 0 0 0 0 0 0 0.08 0"/>
<feBlend mode="normal" in2="BackgroundImageFix" result="effect1_dropShadow_179_484"/>
<feBlend mode="normal" in="SourceGraphic" in2="effect1_dropShadow_179_484" result="shape"/>
</filter>
<filter id="filter5_d_179_484" x="248.395" y="290.651" width="11.8202" height="8.33221" filterUnits="userSpaceOnUse" color-interpolation-filters="sRGB">
<feFlood flood-opacity="0" result="BackgroundImageFix"/>
<feColorMatrix in="SourceAlpha" type="matrix" values="0 0 0 0 0 0 0 0 0 0 0 0 0 0 0 0 0 0 127 0" result="hardAlpha"/>
<feOffset/>
<feGaussianBlur stdDeviation="0.672652"/>
<feColorMatrix type="matrix" values="0 0 0 0 0 0 0 0 0 0 0 0 0 0 0 0 0 0 0.08 0"/>
<feBlend mode="normal" in2="BackgroundImageFix" result="effect1_dropShadow_179_484"/>
<feBlend mode="normal" in="SourceGraphic" in2="effect1_dropShadow_179_484" result="shape"/>
</filter>
<filter id="filter6_d_179_484" x="246.743" y="293.422" width="6.72654" height="6.72654" filterUnits="userSpaceOnUse" color-interpolation-filters="sRGB">
<feFlood flood-opacity="0" result="BackgroundImageFix"/>
<feColorMatrix in="SourceAlpha" type="matrix" values="0 0 0 0 0 0 0 0 0 0 0 0 0 0 0 0 0 0 127 0" result="hardAlpha"/>
<feOffset/>
<feGaussianBlur stdDeviation="0.840814"/>
<feColorMatrix type="matrix" values="0 0 0 0 0 0 0 0 0 0 0 0 0 0 0 0 0 0 0.12 0"/>
<feBlend mode="normal" in2="BackgroundImageFix" result="effect1_dropShadow_179_484"/>
<feBlend mode="normal" in="SourceGraphic" in2="effect1_dropShadow_179_484" result="shape"/>
</filter>
<linearGradient id="paint0_linear_179_484" x1="290.606" y1="288.553" x2="242.113" y2="256.049" gradientUnits="userSpaceOnUse">
<stop stop-color="#3374F6"/>
<stop offset="1" stop-color="#00D3ED"/>
</linearGradient>
<linearGradient id="paint1_linear_179_484" x1="248.585" y1="274.773" x2="251.649" y2="318.586" gradientUnits="userSpaceOnUse">
<stop stop-color="#F8F8F8"/>
<stop offset="1" stop-color="#D0D0D0"/>
</linearGradient>
<clipPath id="clip0_179_484">
<rect width="46.08" height="46.08" fill="white" transform="translate(227.077 273.64)"/>
</clipPath>
</defs>
</svg>
