<svg width="500" height="500" viewBox="0 0 500 500" fill="none" xmlns="http://www.w3.org/2000/svg">
<rect x="145" y="61" width="208" height="117" fill="white"/>
<path d="M249.796 212.727C240.858 212.643 233.07 209.959 227.248 202.915C226.002 201.405 225.055 199.512 224.504 197.643C224.276 196.84 225.187 195.151 226.002 194.768C226.852 194.372 228.23 194.995 229.32 195.355C229.74 195.486 229.991 196.133 230.303 196.565C236.185 204.831 244.572 206.689 253.965 205.574C260.447 204.808 265.898 201.98 269.684 196.409C270.954 194.54 272.679 193.929 274.692 195.187C276.477 196.301 276.645 198.434 275.255 200.542C270.702 207.419 263.957 210.678 256.098 212.044C254.013 212.403 251.892 212.511 249.784 212.727H249.796Z" fill="#01466E"/>
<path d="M332.896 131.566C332.704 136.155 329.901 139.605 326.45 139.509C323.12 139.414 320.34 135.604 320.376 131.183C320.412 126.822 323.431 122.952 326.714 123.048C330.2 123.143 333.088 127.121 332.896 131.566Z" fill="white"/>
<path d="M198.96 131.566C198.769 136.155 195.965 139.605 192.515 139.509C189.184 139.414 186.404 135.604 186.44 131.183C186.476 126.822 189.495 122.952 192.778 123.048C196.265 123.143 199.152 127.121 198.96 131.566Z" fill="white"/>
<g clip-path="url(#clip0_179_461)">
<path d="M220.98 188.333C223.519 187.456 228.677 190.061 231.616 190.686C240.789 192.627 253.712 193.279 263.059 192.348C266.423 192.016 273.948 189.357 276.607 191.085C282.045 199.102 272.326 212.358 265.479 216.958C247.052 229.309 225.992 217.729 220.674 197.826C220.022 195.366 218.001 189.37 220.98 188.333ZM249.431 204.035C245.31 204.846 239.433 208.409 237.04 211.906C236.734 214.206 244.525 216.413 246.201 216.652C254.271 217.782 262.088 214.884 267.194 208.568C263.431 203.184 255.374 202.865 249.431 204.035Z" fill="#01466E"/>
<path d="M249.432 204.035C255.361 202.865 263.432 203.185 267.194 208.569C262.089 214.884 254.271 217.769 246.201 216.653C244.526 216.413 236.735 214.206 237.04 211.906C239.434 208.41 245.31 204.846 249.432 204.035Z" fill="white"/>
</g>
<path d="M211.663 164.86C205.335 170.899 196.128 174.272 187.429 174.447L193.424 173.316C204.56 169.449 210.04 159.212 207.375 147.701C206.873 145.537 205.668 143.171 205.4 141.019C205.192 139.355 206.156 134.753 203.393 136.372C200.181 138.25 200.344 145.355 196.121 145.667C195.594 143.268 196.551 140.889 196.369 138.302C195.698 128.774 190.745 126.765 186.073 120.11C181.909 114.188 184.008 109.534 184.907 102.989C177.472 107.201 173.536 115.319 173.986 123.795C174.299 129.677 177.928 138.257 173.712 143.314C172.122 145.225 169.385 146.525 167.144 144.861C165.632 143.736 165.384 141.078 163.371 140.948C159.324 156.112 167.131 172.276 183.649 174.168C184.184 174.226 184.47 173.914 184.347 174.72C180.567 174.272 176.879 174.109 173.158 173.186C158.288 169.488 148.383 156.515 149.387 141.091C150.006 131.556 156.236 121.994 150.781 112.628C150.951 111.705 153.238 113.103 153.668 113.369C154.854 114.104 156.457 115.599 157.33 116.691C158.366 117.991 158.966 119.609 160.008 120.851C159.813 114.247 160.771 107.182 163.684 101.208C169.131 90.0093 185.891 80.2532 178.521 65.6808C178.313 65.2648 176.872 63.5553 177.074 63.3604C188.993 67.7347 198.558 80.3182 199.171 93.0837C199.471 99.4339 196.017 111.055 199.901 116.08C203.074 120.194 207.551 117.77 209.102 113.584C210.607 109.521 209.421 106.317 209.154 102.372C209.141 102.196 208.906 101.572 209.382 101.598C210.112 101.637 213.924 107.234 214.504 108.209C224.206 124.562 226.474 150.73 211.663 164.854V164.86Z" fill="#D1A48B"/>
<path d="M340.345 106.053C338.7 114.856 343.874 122.682 346.302 130.839C354.49 158.309 332.521 178.845 305.281 174.013C274.177 168.502 270.041 134.267 286.457 111.641C291.2 105.102 298.058 99.7853 295.813 90.5036C299.141 91.642 302.051 95.1412 302.814 98.5564C308.341 90.4907 311.818 77.7227 305.613 69.1201C309.143 69.5082 313.032 72.2377 315.701 74.5274C322.721 80.5622 328.222 89.0871 329.135 98.4206C329.703 104.222 328.293 109.442 328.006 115.069C327.869 117.689 327.608 121.421 330.407 122.728C333.115 123.012 333.089 117.075 333.539 115.283C334.414 111.816 337.004 107.547 340.338 106.059L340.345 106.053ZM294.691 129.105C294.247 128.646 293.145 130.567 292.962 130.864C283.827 145.644 287.749 167.985 305.894 173.405C317.678 176.924 331.419 167.222 331.099 154.803C330.779 142.384 319.087 137.417 315.126 127.307C312.667 121.027 312.367 113.414 314.565 107.023C314.507 106.253 312.889 107.288 312.53 107.495C306.214 111.117 302.958 119.759 303.375 126.744C303.591 130.341 306.697 140.314 300.407 140.47C294.769 140.612 295.226 132.844 294.691 129.112V129.105Z" fill="#D1A48B"/>
<defs>
<clipPath id="clip0_179_461">
<rect width="58.7916" height="33.8896" fill="white" transform="translate(219.397 188.16)"/>
</clipPath>
</defs>
</svg>
