<svg width="500" height="500" viewBox="0 0 500 500" fill="none" xmlns="http://www.w3.org/2000/svg">
<path d="M115.746 247.773C121.046 247.52 126.735 249.998 129.612 255.3L129.882 255.821V255.822L130.056 256.19C130.887 258.007 131.128 259.522 131.175 260.999C131.198 261.741 131.172 262.491 131.157 263.179C131.145 263.711 131.139 264.241 131.157 264.803L131.184 265.375V265.376L131.219 265.828C131.319 266.893 131.531 268.02 131.766 269.253C132.026 270.614 132.319 272.116 132.42 273.581L132.473 274.531C132.899 284.292 129.361 292.425 123.212 297.89C116.883 303.514 107.944 306.178 98.1189 305.071H98.1179C97.1968 304.967 95.3195 304.509 93.8201 304.17C93.0169 303.988 92.2743 303.828 91.6902 303.727C91.5082 303.695 91.3541 303.671 91.2273 303.654C91.1276 303.741 91.0064 303.851 90.865 303.985C90.4059 304.423 89.8372 305.014 89.2283 305.662C88.6404 306.287 87.9892 306.993 87.447 307.564C87.0523 307.98 86.6466 308.399 86.2976 308.724L85.9695 309.013C84.9503 309.851 83.9489 310.602 82.6726 310.785C81.4843 310.955 80.2852 310.579 79.1345 310.24L79.1306 310.238C78.4285 310.03 76.6581 309.336 75.155 308.458C74.4192 308.028 73.5867 307.463 72.9949 306.783C72.4388 306.145 71.6161 304.779 72.49 303.287L72.5759 303.154C72.6452 303.056 72.7237 302.966 72.8083 302.885C72.8273 302.866 72.8415 302.849 72.8523 302.839C72.9315 302.763 73.0069 302.701 73.0623 302.658C73.1744 302.571 73.2973 302.487 73.408 302.414C73.6346 302.264 73.9236 302.088 74.2371 301.903C74.8693 301.53 75.6929 301.066 76.5242 300.602C78.2659 299.628 79.9106 298.721 80.3533 298.419L80.3542 298.418L80.8679 298.063C82.0503 297.235 83.124 296.392 84.0916 295.425L84.2107 295.315C84.7165 294.889 85.4042 294.765 86.0203 294.971C85.6313 294.73 85.3378 294.356 85.2048 293.91C85.0398 293.357 85.1378 292.758 85.4705 292.286L101.448 269.616C102.255 268.133 102.479 266.462 102.575 264.429C102.667 262.481 102.634 260.025 103.211 257.701V257.7L103.371 257.108C105.145 251.083 110.409 248.028 115.746 247.773ZM86.45 295.174C87.6298 295.874 89.0548 296.226 90.6746 296.47L91.3904 296.569L91.3923 296.57L92.3767 296.686C92.7812 296.728 93.1888 296.76 93.5984 296.789C91.0824 296.556 88.6333 296.022 86.45 295.174ZM116.376 286.986C114.277 290.901 110.432 293.734 106.49 295.24C106.746 295.149 107.001 295.056 107.252 294.957C111.229 293.387 114.499 290.821 116.376 286.986ZM117.722 278.817C117.748 278.932 117.777 279.061 117.806 279.198C117.776 279.03 117.74 278.87 117.7 278.719C117.707 278.752 117.715 278.784 117.722 278.817Z" fill="#F6CE8F" stroke="#01466E" stroke-width="3.76835" stroke-linejoin="round"/>
<path d="M136.76 259.447L129.513 255.672L130.508 263.605L136.547 261.763C137.622 261.435 137.758 259.967 136.76 259.447Z" fill="#01466E"/>
</svg>
