<svg width="500" height="500" viewBox="0 0 500 500" fill="none" xmlns="http://www.w3.org/2000/svg">
<path d="M316.037 13.9579L333.745 23.3229L354.112 40.0961L370.886 61.6618L385.85 91.8776L392.451 126.359V153.148L396.86 171.646L400.304 202.953L380.739 229.394L356.038 246.168L308.717 256.951L319.02 267.314L380.471 310.865L396.046 320.449L400.874 335.366L388.857 346.807L363.697 350.496L331.349 334.826L337.339 363.581L338.537 383.948L335.65 415.949L329.156 445.446L322.962 464.22L308.717 487.379L294.208 498.965L278.573 496.676L270.246 491.776L255.869 448.645V416.009L240.294 413.9V430.47L235.502 465.418L225.917 491.776L214.427 498.965H201.859L187.578 488.182L165.389 449.016L156.428 400.721L159.411 352.81L180.389 298.884L161.22 338.421L144.447 343.065L120.485 351.6L108.222 345.609L97.7332 329.231L106.276 315.705L133.065 300.681L183.487 256.951L136.699 240.776L105.024 216.814L101.879 193.847L104.068 152.118L106.801 106.59L131.867 56.2704L171.404 22.7238L232.506 1.1582L300.797 9.35662L316.037 13.9579Z" fill="white"/>
<path d="M249.796 212.727C240.858 212.643 233.07 209.959 227.248 202.915C226.002 201.405 225.055 199.512 224.504 197.643C224.276 196.84 225.187 195.151 226.002 194.768C226.852 194.372 228.23 194.995 229.32 195.355C229.74 195.486 229.991 196.133 230.303 196.565C236.185 204.831 244.572 206.689 253.965 205.574C260.447 204.808 265.898 201.98 269.684 196.409C270.954 194.54 272.679 193.929 274.692 195.187C276.477 196.301 276.645 198.434 275.255 200.542C270.702 207.419 263.957 210.678 256.098 212.044C254.013 212.403 251.892 212.511 249.784 212.727H249.796Z" fill="#01466E"/>
<path d="M332.896 131.566C332.704 136.155 329.901 139.605 326.45 139.509C323.12 139.414 320.34 135.604 320.376 131.183C320.412 126.822 323.431 122.952 326.714 123.048C330.2 123.143 333.088 127.121 332.896 131.566Z" fill="white"/>
<path d="M198.96 131.566C198.769 136.155 195.965 139.605 192.515 139.509C189.184 139.414 186.404 135.604 186.44 131.183C186.476 126.822 189.495 122.952 192.778 123.048C196.265 123.143 199.152 127.121 198.96 131.566Z" fill="white"/>
<path d="M318.886 262.477L350.768 285.244C363.412 294.194 377.489 300.964 390.471 309.332C402.211 316.892 410.301 325.555 401.759 339.963C388.499 362.313 353.81 354.805 337.169 340.458C340.01 351.407 342.913 362.521 343.877 373.861C346.484 404.596 335.692 453.589 318.53 479.466C299.178 508.638 269.633 504.858 258.449 471.637C252.914 455.214 251.932 436.644 250.95 419.438C250.577 418.291 247.396 419.03 246.362 418.821C244.12 438.781 243.799 462.235 234.405 480.405C220.841 506.63 193.599 503.78 177.957 481.265C163.845 460.957 153.73 424.913 151.402 400.365C149.499 380.3 151.897 360.271 156.989 340.849C144.632 349.469 128.713 354.501 113.81 349.904C96.6568 344.603 87.6891 325.781 103.105 312.504C113.506 303.536 131.129 295.376 143.164 287.269C155.234 279.144 166.669 270.003 178.635 261.739C178.565 261.165 178.088 261.165 177.67 261.035C175.541 260.366 172.952 260.027 170.719 259.401C133.675 248.982 88.7319 225.798 94.3801 180.256C95.0753 174.642 96.9262 169.211 97.9429 163.667C100.576 149.225 97.6388 134.861 99.6026 120.184C104.478 83.8877 127.045 48.2601 156.876 27.4745C202.262 -4.15583 271.892 -7.77941 321.745 15.0222C363.055 33.9135 394.303 75.5108 399.778 120.923C401.429 134.609 398.978 148.174 401.055 161.443C402.802 172.652 406.252 181.863 405.044 193.638C400.899 234.079 353.923 255.473 318.886 262.495V262.477ZM257.711 418.456C259.675 436.114 260.109 455.639 266.748 472.28C272.831 487.53 286.3 497.862 301.689 486.14C320.094 472.124 332.433 425.678 334.875 403.293C339.011 365.415 327.141 333.871 311.856 300.286C310.457 297.21 306.712 290.979 305.999 288.233C305.182 285.096 307.633 282.272 310.57 284.036C312.038 284.914 316.288 292.987 317.452 295.063C321.467 302.232 325.099 309.662 328.644 317.074C330.295 320.524 331.121 324.009 333.606 327.033C345.754 341.822 379.018 356.186 393.469 337.651C400.056 329.214 396.693 323.27 389.116 317.769C377.602 309.401 363.012 302.519 350.76 294.577C336.239 285.157 322.414 274.704 308.415 264.545C301.602 263.989 292.947 266.874 286.256 265.814C283.128 265.319 282.329 260.957 285.578 259.957C321.588 256.82 384.336 240.284 395.433 200.442C399.274 186.643 395.32 177.11 392.904 163.971C390.367 150.181 392.809 136.773 391.184 122.783C385.866 76.8404 353.558 35.8339 310.483 19.5582C232.215 -10.03 132.936 21.3135 110.917 107.993C107.293 122.27 107.623 132.185 107.762 146.601C107.884 159.679 105.129 166.743 103.078 178.883C93.937 232.863 166.913 252.71 207.215 258.315C211.117 258.862 216.478 258.81 220.059 259.644C222.639 260.244 223.769 263.468 221.336 265.084C219.807 266.101 217.53 265.892 215.722 265.849C207.215 265.64 198.647 264.05 190.175 263.45C172.378 275.529 155.703 289.181 137.333 300.468C128.652 305.804 111.603 313.755 105.729 321.471C98.6815 330.726 108.753 340.693 117.816 342.9C133.405 346.697 150.046 338.129 160.882 327.389C167.173 312.921 174.151 298.739 181.859 284.975C183.814 282.715 187.611 283.393 187.881 286.652C175.455 314.528 161.933 343.195 159.605 374.252C157.424 403.284 167.008 447.541 182.198 472.541C195.641 494.665 218.242 499.757 229.791 472.819C236.969 456.091 237.264 436.331 239.428 418.465C235.908 418.022 232.389 417.396 228.983 416.414C226.15 415.589 214.74 412.2 219.45 407.62C221.666 405.465 225.672 407.916 228.305 408.507C241.991 411.618 255.669 411.122 269.346 408.272C271.944 407.733 278.357 404.727 278.575 409.723C278.696 412.478 275.472 413.599 273.361 414.529C268.469 416.692 263.029 417.9 257.711 418.465V418.456Z" fill="#01466E"/>
<g clip-path="url(#clip0_214_24)">
<path d="M222.662 191.973C225.202 191.095 230.36 193.701 233.299 194.326C242.472 196.267 255.395 196.919 264.742 195.988C268.106 195.655 275.631 192.996 278.29 194.725C283.728 202.742 274.009 215.997 267.162 220.597C248.734 232.949 227.675 221.369 222.357 201.466C221.705 199.006 219.684 193.01 222.662 191.973ZM251.114 207.674C246.993 208.485 241.116 212.049 238.723 215.545C238.417 217.845 246.208 220.052 247.883 220.292C255.954 221.422 263.771 218.523 268.877 212.208C265.114 206.823 257.057 206.504 251.114 207.674Z" fill="#01466E"/>
<path d="M251.115 207.675C257.044 206.505 265.114 206.824 268.877 212.209C263.772 218.524 255.954 221.409 247.884 220.292C246.209 220.053 238.418 217.846 238.723 215.546C241.117 212.049 246.993 208.486 251.115 207.675Z" fill="white"/>
</g>
<path d="M213.346 168.5C207.018 174.538 197.811 177.912 189.112 178.087L195.107 176.956C206.243 173.089 211.723 162.852 209.058 151.341C208.556 149.176 207.351 146.81 207.083 144.659C206.875 142.995 207.839 138.393 205.076 140.012C201.864 141.89 202.027 148.994 197.804 149.306C197.277 146.908 198.234 144.529 198.052 141.942C197.381 132.413 192.428 130.405 187.756 123.749C183.592 117.828 185.691 113.174 186.59 106.629C179.155 110.841 175.219 118.959 175.669 127.435C175.981 133.317 179.611 141.896 175.395 146.953C173.805 148.864 171.068 150.164 168.827 148.5C167.315 147.376 167.067 144.717 165.054 144.587C161.007 159.751 168.814 175.916 185.332 177.808C185.867 177.866 186.153 177.554 186.03 178.36C182.25 177.912 178.562 177.749 174.841 176.826C159.971 173.128 150.066 160.154 151.07 144.73C151.689 135.195 157.919 125.634 152.464 116.268C152.634 115.345 154.921 116.742 155.351 117.009C156.537 117.743 158.14 119.238 159.013 120.33C160.049 121.63 160.649 123.249 161.691 124.49C161.496 117.886 162.454 110.821 165.367 104.848C170.814 93.6489 187.574 83.8928 180.204 69.3204C179.995 68.9044 178.555 67.195 178.757 67C190.676 71.3743 200.241 83.9578 200.854 96.7233C201.154 103.074 197.7 114.695 201.584 119.719C204.757 123.834 209.234 121.409 210.785 117.223C212.29 113.161 211.104 109.957 210.837 106.011C210.824 105.836 210.589 105.212 211.065 105.238C211.795 105.277 215.607 110.873 216.187 111.848C225.889 128.202 228.157 154.369 213.346 168.493V168.5Z" fill="#D1A48B"/>
<path d="M342.027 109.693C340.383 118.496 345.557 126.322 347.985 134.478C356.173 161.948 334.204 182.484 306.964 177.653C275.86 172.142 271.724 137.906 288.14 115.281C292.883 108.742 299.741 103.425 297.496 94.1433C300.824 95.2817 303.734 98.7809 304.497 102.196C310.024 94.1303 313.501 81.3623 307.296 72.7598C310.826 73.1479 314.715 75.8774 317.384 78.1671C324.404 84.2018 329.905 92.7268 330.818 102.06C331.386 107.862 329.976 113.082 329.689 118.709C329.552 121.329 329.291 125.061 332.09 126.367C334.798 126.652 334.772 120.714 335.222 118.923C336.097 115.456 338.687 111.187 342.021 109.699L342.027 109.693ZM296.374 132.745C295.93 132.286 294.828 134.207 294.645 134.504C285.51 149.284 289.432 171.625 307.577 177.045C319.361 180.563 333.102 170.861 332.782 158.443C332.462 146.024 320.77 141.056 316.809 130.947C314.35 124.666 314.05 117.053 316.248 110.663C316.19 109.893 314.571 110.928 314.213 111.135C307.897 114.757 304.641 123.398 305.058 130.384C305.274 133.98 308.38 143.954 302.09 144.109C296.452 144.252 296.909 136.483 296.374 132.751V132.745Z" fill="#D1A48B"/>
<defs>
<clipPath id="clip0_214_24">
<rect width="58.7916" height="33.8896" fill="white" transform="translate(221.08 191.8)"/>
</clipPath>
</defs>
</svg>
