<svg width="500" height="500" viewBox="0 0 500 500" fill="none" xmlns="http://www.w3.org/2000/svg">
<g clip-path="url(#clip0_179_595)">
<path d="M349.568 403.018C350.708 399.88 350.884 397.441 350.679 394.096C350.376 389.263 347.906 372.197 345.673 368.554C344.887 367.273 344.051 366.871 343.1 366.368C342.761 366.487 292.214 374.772 271.804 375.688L271.23 375.574C267.854 368.982 262.55 368.92 255.929 369.204C254.868 369.248 253.891 369.717 252.829 369.751C241.286 370.137 226.057 368.997 215.099 370.528C211.651 371.01 209.23 373.106 208.388 376.49C193.707 375.298 164.465 371.194 164.465 371.194C161.948 371.158 155.053 369.862 154.089 369.607C153.344 370.184 152.116 370.677 151.213 372.626C149.404 376.524 145.515 399.099 146.312 403C146.606 404.448 147.702 405.232 147.981 406.595C142.007 421.627 136.215 437.465 132.24 453.187C130.937 458.335 129.242 460.237 133.499 464.515C137.761 468.797 155.175 459.982 157.124 459.511L184.883 446.894C185.833 445.957 185.992 444.653 186.36 443.458C189.146 434.345 190.698 424.263 193.262 415.024L200.372 415.802C199.618 426.635 196.481 437.415 196.67 448.336L224.743 469.854C224.948 469.962 225.14 470.107 225.315 470.293L225.388 470.35C225.388 470.35 234.044 475.824 234.214 476.005C236.243 477.059 242.248 481.626 244.566 481.356C248.603 480.889 256.717 472.311 261.428 469.476C261.61 469.117 272.316 462.122 272.586 462.076L292.54 446.3L288.099 414.458L294.381 413.88L304.897 445.854L340.917 458.733C343.036 458.935 360.487 466.378 363.745 464.927C364.883 464.423 368.832 459.727 369.457 458.503C369.907 457.617 370.361 456.901 370.286 455.831C364.22 437.895 357.442 420.211 349.563 403.004L349.568 403.018ZM216.413 382.804C216.529 381.618 216.889 380.499 218.026 379.946L261.326 379.222C262.15 379.93 262.187 380.888 262.293 381.886C263.094 389.203 262.363 397.082 262.246 404.381C262.209 406.83 262.969 414.095 262.064 415.679C261.585 416.512 260.558 416.929 259.615 416.853C247.551 416.388 234.667 418.182 222.708 417.572C221.698 417.52 218.361 417.208 217.727 416.788C215.465 415.289 216.875 407.401 216.87 404.867C216.858 398.056 215.78 389.29 216.408 382.805L216.413 382.804ZM177.96 439.356L141.403 455.149C145.782 439.545 150.471 423.963 156.735 409.011L184.658 413.808L177.96 439.351L177.96 439.356ZM156.074 399.035L158.798 379.674C174.701 382.831 190.857 384.632 207.057 385.686L206.997 406.619C189.812 405.806 172.752 403.099 156.074 399.035ZM244.015 470.585C230.861 461.635 217.541 452.755 205.523 442.31L208.613 420.087L211.816 423.4C217.764 428.253 226.075 426.261 233.261 426.326C242.396 426.412 252.449 427.33 261.57 426.231C266.927 425.585 271.244 421.012 271.977 415.726L279.563 415.091L282.998 441.105L244.015 470.581L244.015 470.585ZM271.736 405.796L271.778 385.097C294.223 383.992 316.562 381.143 338.629 377.03L340.524 395.49C318.289 402.276 294.983 405.171 271.736 405.796ZM312.419 438.958L303.363 412.82L341.019 405.959C348.721 421.734 354.733 438.271 360.409 454.874L312.423 438.958L312.419 438.958Z" fill="#1F5054"/>
<path d="M338.629 377.031L340.524 395.49C318.289 402.276 294.983 405.171 271.736 405.797L271.777 385.098C294.223 383.993 316.562 381.144 338.629 377.031Z" fill="#6F7CA4"/>
<path d="M206.997 406.623C189.812 405.81 172.752 403.103 156.074 399.039L158.798 379.678C174.702 382.835 190.857 384.636 207.057 385.69L206.997 406.623Z" fill="#6F7CA4"/>
<path d="M218.026 379.946L261.326 379.222C262.15 379.931 262.187 380.889 262.293 381.886C263.094 389.204 262.363 397.082 262.246 404.382C262.209 406.831 262.969 414.095 262.064 415.68C261.585 416.513 260.558 416.929 259.615 416.853C247.551 416.389 234.667 418.183 222.708 417.573C221.698 417.521 218.361 417.208 217.727 416.789C215.465 415.289 216.876 407.402 216.871 404.867C216.858 398.057 215.78 389.291 216.408 382.805C216.524 381.619 216.885 380.5 218.022 379.946L218.026 379.946ZM225.809 386.55C224.172 387.077 223.456 388.199 223.295 389.867C222.948 393.476 223.465 398.692 223.576 402.484C223.663 405.508 222.263 409.87 226.624 410.288C232.325 410.838 246.029 410.455 251.828 409.8C254.263 409.527 255.766 409.043 256.023 406.337C256.399 402.386 256.142 393.239 255.694 389.219C255.41 386.672 254.849 386.098 252.257 385.911C243.886 385.315 234.309 386.796 225.809 386.55Z" fill="#6F7CA4"/>
<path d="M225.809 386.549C234.304 386.796 243.885 385.315 252.257 385.911C254.853 386.098 255.414 386.672 255.694 389.219C256.142 393.243 256.399 402.386 256.022 406.336C255.765 409.047 254.258 409.527 251.828 409.8C246.029 410.454 232.325 410.837 226.624 410.288C222.267 409.87 223.662 405.507 223.576 402.484C223.465 398.687 222.952 393.475 223.295 389.867C223.456 388.198 224.172 387.077 225.809 386.549ZM247.665 393.672C247.334 393.557 247.139 394.132 246.999 394.135L232.163 394.428C232.051 394.43 231.89 394.069 231.706 394.086L231.043 394.675L231.198 402.545L247.829 402.217L247.661 393.672L247.665 393.672Z" fill="#1F5054"/>
<path d="M247.665 393.671L247.834 402.216L231.203 402.545L231.047 394.674L231.711 394.085C231.895 394.068 232.055 394.429 232.168 394.427L247.004 394.134C247.139 394.132 247.339 393.556 247.67 393.671L247.665 393.671Z" fill="white"/>
</g>
<path d="M249.944 42C230.198 36.657 222.613 23.9291 227.382 4.14277C238.123 1.03729 249.821 1 249.944 1C250.065 1 261.801 1.05144 272.506 4.14277C277.275 23.9291 269.691 36.657 249.944 42Z" fill="#6F7CA4"/>
<path d="M272.506 4.14277C261.801 1.05144 250.065 1 249.944 1V42C269.69 36.657 277.275 23.9291 272.506 4.14277Z" fill="#1F5054"/>
<defs>
<clipPath id="clip0_179_595">
<rect width="239.536" height="113.539" fill="white" transform="translate(129.02 370.093) rotate(-1.13054)"/>
</clipPath>
</defs>
</svg>
